<?xml version="1.0" encoding="UTF-8"?>
<svg xmlns="http://www.w3.org/2000/svg" viewBox="0 0 256 256">
  <rect width="256" height="256" rx="16" fill="#8c4b31"/>
  <rect x="16" y="16" width="224" height="224" rx="4" fill="none" stroke="#fff" stroke-width="8" stroke-miterlimit="10"/>
  <!-- Simplified "A" letter centered -->
  <g transform="translate(128,128) scale(0.82) translate(-129,-127)">
    <polygon fill="#fff" points="119.71 98.59 100.42 98.59 100.42 117.88 100.42 193.73 119.71 193.73 119.71 117.88 138.99 117.88 138.99 193.73 158.28 193.73 158.28 117.88 158.28 98.59 138.99 98.59 119.71 98.59"/>
    <polygon fill="#fff" points="177.57 60.02 158.28 60.02 138.99 60.02 119.71 60.02 100.42 60.02 81.14 60.02 61.85 60.02 61.85 79.3 61.85 98.59 61.85 117.88 61.85 193.73 81.14 193.73 81.14 117.88 81.14 98.59 81.14 79.3 100.42 79.3 119.71 79.3 138.99 79.3 158.28 79.3 177.57 79.3 177.57 98.59 177.57 117.88 177.57 193.73 196.85 193.73 196.85 117.88 196.85 98.59 196.85 79.3 196.85 60.02 177.57 60.02"/>
  </g>
</svg>
