<?xml version="1.0" encoding="UTF-8"?>
<svg xmlns="http://www.w3.org/2000/svg" viewBox="55 55 840 145">
  <g>
    <g>
      <polygon fill="currentColor" points="119.71 98.59 100.42 98.59 100.42 117.88 100.42 193.73 119.71 193.73 119.71 117.88 138.99 117.88 138.99 193.73 158.28 193.73 158.28 117.88 158.28 98.59 138.99 98.59 119.71 98.59"/>
      <polygon fill="currentColor" points="177.57 60.02 158.28 60.02 138.99 60.02 119.71 60.02 100.42 60.02 81.14 60.02 61.85 60.02 61.85 79.3 61.85 98.59 61.85 117.88 61.85 193.73 81.14 193.73 81.14 117.88 81.14 98.59 81.14 79.3 100.42 79.3 119.71 79.3 138.99 79.3 158.28 79.3 177.57 79.3 177.57 98.59 177.57 117.88 177.57 193.73 196.85 193.73 196.85 117.88 196.85 98.59 196.85 79.3 196.85 60.02 177.57 60.02"/>
    </g>
    <path fill="currentColor" d="M829.74,60.02v133.71h57.37V60.02h-57.37ZM867.99,174.6h-19.12v-95.46h19.12v95.46Z"/>
    <g>
      <polygon fill="currentColor" points="618.66 98.24 561.18 98.24 561.18 193.7 580.3 193.7 580.3 117.36 618.66 117.36 618.66 98.24"/>
      <polygon fill="currentColor" points="656.8 59.99 522.93 59.99 522.93 193.7 542.05 193.7 542.05 79.11 637.67 79.11 637.67 136.48 599.54 136.48 599.54 156.57 614.73 174.58 618.66 179.24 630.85 193.7 655.87 193.7 639.75 174.58 623.75 155.61 656.8 155.61 656.8 59.99"/>
    </g>
    <g>
      <polygon fill="currentColor" points="426.66 98.59 407.37 98.59 407.37 117.88 407.37 193.73 426.66 193.73 426.66 117.88 445.94 117.88 445.94 193.73 465.23 193.73 465.23 117.88 465.23 98.59 445.94 98.59 426.66 98.59"/>
      <polygon fill="currentColor" points="484.52 60.02 465.23 60.02 445.94 60.02 426.66 60.02 407.37 60.02 388.09 60.02 368.8 60.02 368.8 79.3 368.8 98.59 368.8 117.88 368.8 193.73 388.09 193.73 388.09 117.88 388.09 98.59 388.09 79.3 407.37 79.3 426.66 79.3 445.94 79.3 465.23 79.3 484.52 79.3 484.52 98.59 484.52 117.88 484.52 193.73 503.8 193.73 503.8 117.88 503.8 98.59 503.8 79.3 503.8 60.02 484.52 60.02"/>
    </g>
    <g>
      <polygon fill="currentColor" points="330.55 136.44 254.22 136.44 254.22 155.56 349.68 155.56 349.68 59.94 215.97 59.94 215.97 79.06 330.55 79.06 330.55 136.44"/>
      <polygon fill="currentColor" points="235.09 117.31 311.43 117.31 311.43 98.19 215.97 98.19 215.97 193.81 349.68 193.81 349.68 174.68 235.09 174.68 235.09 117.31"/>
    </g>
    <g>
      <polygon fill="currentColor" points="675.92 79.04 675.92 59.92 810.61 59.92 810.61 67.84 810.61 79.04 810.61 98.16 810.61 104.92 810.61 117.29 675.92 117.29 675.92 98.16 791.49 98.16 791.49 79.04 675.92 79.04"/>
      <polygon fill="currentColor" points="810.61 144.34 810.61 155.53 810.61 174.66 810.61 181.41 810.61 193.78 675.92 193.78 675.92 174.66 791.49 174.66 791.49 155.53 675.92 155.53 675.92 136.41 810.61 136.41 810.61 144.34"/>
    </g>
  </g>
</svg>
